<svg width="400" height="400" viewBox="0 0 400 400" fill="none" xmlns="http://www.w3.org/2000/svg">
  <!-- Background -->
  <rect width="400" height="400" fill="#f8f9fa"/>
  
  <!-- Chart background -->
  <rect x="50" y="250" width="300" height="120" fill="white" stroke="#e5e7eb" stroke-width="2" rx="8"/>
  
  <!-- Chart grid lines -->
  <line x1="50" y1="300" x2="350" y2="300" stroke="#e5e7eb" stroke-width="1"/>
  <line x1="50" y1="325" x2="350" y2="325" stroke="#e5e7eb" stroke-width="1"/>
  
  <!-- Chart line -->
  <path d="M70 340 L120 330 L170 315 L220 290 L270 275 L320 260" stroke="#10b981" stroke-width="4" fill="none"/>
  
  <!-- Chart points -->
  <circle cx="70" cy="340" r="4" fill="#10b981"/>
  <circle cx="120" cy="330" r="4" fill="#10b981"/>
  <circle cx="170" cy="315" r="4" fill="#10b981"/>
  <circle cx="220" cy="290" r="4" fill="#10b981"/>
  <circle cx="270" cy="275" r="4" fill="#10b981"/>
  <circle cx="320" cy="260" r="4" fill="#10b981"/>
  
  <!-- Arrow pointing up -->
  <path d="M350 200 L380 170 L350 140 L365 155 L365 185 Z" fill="#10b981"/>
  
  <!-- Hand holding vinyl -->
  <g transform="translate(50, 50)">
    <!-- Arm -->
    <ellipse cx="80" cy="120" rx="35" ry="80" fill="#f97316" transform="rotate(-30 80 120)"/>
    
    <!-- Hand -->
    <ellipse cx="120" cy="80" rx="25" ry="35" fill="#f97316" transform="rotate(-15 120 80)"/>
    
    <!-- Fingers -->
    <ellipse cx="140" cy="65" rx="8" ry="15" fill="#f97316" transform="rotate(-10 140 65)"/>
    <ellipse cx="145" cy="80" rx="8" ry="15" fill="#f97316" transform="rotate(10 145 80)"/>
    <ellipse cx="140" cy="95" rx="8" ry="15" fill="#f97316" transform="rotate(20 140 95)"/>
    <ellipse cx="130" cy="105" rx="8" ry="15" fill="#f97316" transform="rotate(30 130 105)"/>
    
    <!-- Vinyl record -->
    <circle cx="120" cy="80" r="50" fill="#1f2937"/>
    
    <!-- Vinyl rings -->
    <circle cx="120" cy="80" r="45" fill="none" stroke="white" stroke-width="2"/>
    <circle cx="120" cy="80" r="35" fill="none" stroke="white" stroke-width="2"/>
    <circle cx="120" cy="80" r="25" fill="none" stroke="white" stroke-width="2"/>
    
    <!-- Vinyl center -->
    <circle cx="120" cy="80" r="20" fill="#f97316"/>
    <circle cx="120" cy="80" r="5" fill="white"/>
  </g>
  
  <!-- Shirt sleeve -->
  <rect x="45" y="160" width="60" height="40" fill="#3b82f6" rx="10"/>
</svg>